<?xml version="1.0" encoding="UTF-8"?>
<svg width="109px" height="61px" viewBox="0 0 109 61" version="1.1" xmlns="http://www.w3.org/2000/svg" xmlns:xlink="http://www.w3.org/1999/xlink">
    <!-- Generator: Sketch 51.2 (57519) - http://www.bohemiancoding.com/sketch -->
    <title>deezer</title>
    <desc>Created with Sketch.</desc>
    <defs></defs>
    <g id="Page-1" stroke="none" stroke-width="1" fill="none" fill-rule="evenodd">
        <g id="deezer" transform="translate(0.000000, -1.000000)" fill-rule="nonzero">
            <polygon id="path22" fill="#ED1C24" points="0 61.600726 19.799975 61.600726 19.799975 55.600451 0 55.600451"></polygon>
            <polygon id="path24" fill="#ED1C24" points="0 53.802113 19.799975 53.802113 19.799975 47.801012 0 47.801012"></polygon>
            <polygon id="path26" fill="#ED1C24" points="0 46.002689 19.799975 46.002689 19.799975 40.001587 0 40.001587"></polygon>
            <polygon id="path28" fill="#F6836C" points="0 38.201676 19.799975 38.201676 19.799975 32.203074 0 32.203074"></polygon>
            <polygon id="path30" fill="#F6836C" points="0 30.400475 19.799975 30.400475 19.799975 24.401872 0 24.401872 0 30.400476"></polygon>
            <polygon id="path32" fill="#FFF200" points="22.200279 61.600726 42.00108 61.600726 42.00108 55.600451 22.200279 55.600451"></polygon>
            <polygon id="path34" fill="#FFF200" points="22.200279 53.802113 42.00108 53.802113 42.00108 47.801012 22.200279 47.801012"></polygon>
            <polygon id="path36" fill="#FFF200" points="22.200279 46.002689 42.00108 46.002689 42.00108 40.001587 22.200279 40.001587"></polygon>
            <polygon id="path38" fill="#EC008C" points="44.40056 61.600726 64.201361 61.600726 64.201361 55.600451 44.40056 55.600451 44.40056 61.600726"></polygon>
            <polygon id="path40" fill="#EC008C" points="44.40056 53.802113 64.201361 53.802113 64.201361 47.801012 44.40056 47.801012 44.40056 53.802113"></polygon>
            <polygon id="path42" fill="#EC008C" points="44.40056 46.002689 64.201361 46.002689 64.201361 40.001587 44.40056 40.001587 44.40056 46.002689"></polygon>
            <polygon id="path44" fill="#F680C5" points="44.40056 38.201676 64.201361 38.201676 64.201361 32.203074 44.40056 32.203074 44.40056 38.201676"></polygon>
            <polygon id="path46" fill="#F680C5" points="44.40056 30.400475 64.201361 30.400475 64.201361 24.401872 44.40056 24.401872 44.40056 30.400476"></polygon>
            <polygon id="path48" fill="#F680C5" points="44.40056 22.600967 64.201361 22.600967 64.201361 16.600691 44.40056 16.600691 44.40056 22.600967"></polygon>
            <polygon id="path50" fill="#F680C5" points="44.40056 14.802516 64.201361 14.802516 64.201361 8.801414 44.40056 8.801414 44.40056 14.802516"></polygon>
            <polygon id="path52" fill="#B2DB18" points="66.600628 61.600726 86.400601 61.600726 86.400601 55.600451 66.600628 55.600451"></polygon>
            <polygon id="path54" fill="#B2DB18" points="66.600628 53.802113 86.400601 53.802113 86.400601 47.801012 66.600628 47.801012"></polygon>
            <polygon id="path56" fill="#B2DB18" points="66.600628 46.002689 86.400601 46.002689 86.400601 40.001587 66.600628 40.001587"></polygon>
            <polygon id="path58" fill="#D9ED84" points="66.600628 38.201676 86.400601 38.201676 86.400601 32.203074 66.600628 32.203074"></polygon>
            <polygon id="path60" fill="#D9ED84" points="66.600628 30.400475 86.400601 30.400475 86.400601 24.401872 66.600628 24.401872 66.600628 30.400476"></polygon>
            <polygon id="path62" fill="#59CAF5" points="88.800905 61.600726 108.60253 61.600726 108.60253 55.600451 88.800905 55.600451"></polygon>
            <polygon id="path64" fill="#59CAF5" points="88.800905 53.802113 108.60253 53.802113 108.60253 47.801012 88.800905 47.801012"></polygon>
            <polygon id="path66" fill="#59CAF5" points="88.800905 46.000191 108.60253 46.000191 108.60253 39.999914 88.800905 39.999914"></polygon>
            <polygon id="path68" fill="#B2E6FA" points="88.800905 38.201676 108.60253 38.201676 108.60253 32.200574 88.800905 32.200574 88.800905 38.201675"></polygon>
            <polygon id="path70" fill="#B2E6FA" points="88.800905 30.400475 108.60253 30.400475 108.60253 24.399374 88.800905 24.399374"></polygon>
            <polygon id="path72" fill="#B2E6FA" points="88.800905 22.599486 108.60253 22.599486 108.60253 16.600882 88.800905 16.600882"></polygon>
            <polygon id="path74" fill="#B2E6FA" points="88.800905 14.798282 108.60253 14.798282 108.60253 8.799678 88.800905 8.799678"></polygon>
            <polygon id="path76" fill="#B2E6FA" points="88.800905 6.998984 108.60253 6.998984 108.60253 0.9987093 88.800905 0.9987093"></polygon>
        </g>
    </g>
</svg>