<?xml version="1.0" encoding="UTF-8"?>
<svg width="168px" height="168px" viewBox="0 0 168 168" version="1.1" xmlns="http://www.w3.org/2000/svg" xmlns:xlink="http://www.w3.org/1999/xlink">
    <!-- Generator: Sketch 51.2 (57519) - http://www.bohemiancoding.com/sketch -->
    <title>spotify</title>
    <desc>Created with Sketch.</desc>
    <defs></defs>
    <g id="Page-1" stroke="none" stroke-width="1" fill="none" fill-rule="evenodd">
        <g id="spotify" fill="#1ED760" fill-rule="nonzero">
            <path d="M83.996,0.277 C37.747,0.277 0.253,37.77 0.253,84.019 C0.253,130.27 37.747,167.76 83.996,167.76 C130.25,167.76 167.74,130.27 167.74,84.019 C167.74,37.773 130.25,0.281 83.995,0.281 L83.996,0.277 Z M122.4,121.057 C120.9,123.517 117.68,124.297 115.22,122.787 C95.558,110.777 70.806,108.057 41.656,114.717 C38.847,115.357 36.047,113.597 35.407,110.787 C34.764,107.977 36.517,105.177 39.333,104.537 C71.233,97.249 98.596,100.387 120.67,113.877 C123.13,115.387 123.91,118.597 122.4,121.057 Z M132.65,98.255 C130.76,101.327 126.74,102.297 123.67,100.407 C101.16,86.571 66.847,82.564 40.222,90.646 C36.769,91.689 33.122,89.743 32.074,86.296 C31.034,82.843 32.981,79.203 36.428,78.153 C66.841,68.925 104.65,73.395 130.5,89.28 C133.57,91.17 134.54,95.19 132.65,98.256 L132.65,98.255 Z M133.53,74.511 C106.54,58.48 62.01,57.006 36.241,64.827 C32.103,66.082 27.727,63.746 26.473,59.608 C25.219,55.468 27.553,51.095 31.694,49.837 C61.275,40.857 110.45,42.592 141.524,61.039 C145.254,63.248 146.474,68.055 144.264,71.772 C142.064,75.494 137.244,76.721 133.534,74.511 L133.53,74.511 Z" id="Shape"></path>
        </g>
    </g>
</svg>